<?xml version="1.0" encoding="UTF-8"?><svg id="Layer_1" xmlns="http://www.w3.org/2000/svg" width="305" height="173.51" viewBox="0 0 305 173.51"><defs><style>.cls-1{fill:#bbf3f9;}.cls-2{fill:none;stroke:#000;stroke-miterlimit:10;stroke-width:.25px;}</style></defs><rect class="cls-1" width="304.35" height="173.51"/><path d="M130.22,25.26c-.18,39.29-.36,78.58-.55,117.86-3.79-6.39-11.6-7.31-15.26-4.15-3.18,2.74-3.83,9.1,0,14,7.58-.18,15.16-.36,22.74-.54.13-42.39.27-84.78.4-127.17-2.45,0-4.89,0-7.34,0Z"/><path class="cls-2" d="M172.87,43.25c.15,10.5-18.05,19.36-39.5,18.97-.17-12.28-.34-24.57-.51-36.85,21.43-.98,39.87,7.37,40.01,17.87Z"/><path d="M159.76,57.41c5.09,30.24,10.19,60.48,15.28,90.71.29-.71,1.81-4.18,5.63-5.63.7-.27,4.39-1.67,7.01.25,2.52,1.85,3.28,6.22,1.19,10.31-5.1.06-10.2.11-15.29.17-5.29-31.68-10.57-63.35-15.86-95.03.68-.26,1.36-.52,2.04-.78Z"/><path d="M232.52,22.32c.18,40.27.36,80.54.55,120.81,3.79-6.55,11.6-7.49,15.26-4.26,3.18,2.81,3.83,9.33,0,14.35-7.58-.19-15.16-.37-22.74-.56-.13-43.45-.27-86.9-.4-130.35,2.45,0,4.89,0,7.34,0Z"/><path class="cls-2" d="M270.97,40.3c.15,10.5-18.05,19.36-39.5,18.97-.17-12.28-.34-24.57-.51-36.85,21.43-.98,39.87,7.37,40.01,17.87Z"/><path d="M257.85,54.47c5.09,30.24,10.19,60.48,15.28,90.71.29-.71,1.81-4.18,5.63-5.63.7-.27,4.39-1.67,7.01.25,2.52,1.85,3.28,6.22,1.19,10.31-5.1.06-10.2.11-15.29.17-5.29-31.68-10.57-63.35-15.86-95.03.68-.26,1.36-.52,2.04-.78Z"/><path d="M32.1,21.32c.11,41.87.21,83.73.32,125.6-1.68-2.82-4.52-4.23-6.56-3.6-2.65.83-4.7,5.35-2.54,9.88,5.33,0,10.66,0,16,0,.04-43.96.08-87.92.12-131.88-2.45,0-4.89,0-7.34,0Z"/><path d="M57.81,49.45c5.07,32.89,10.15,65.78,15.22,98.67-.05-.35-.34-2.83,1.27-4.43,1.56-1.55,4.75-1.4,6.7.08,2.35,1.78,3.12,5.66,1.43,9.22-2.99,0-5.98,0-8.98,0-5.21-34.51-10.42-69.03-15.64-103.54Z"/><path class="cls-2" d="M54.24,49.65c-6.19.2-11.33.08-14.89-.07.03-9.37.06-18.75.09-28.12,2.19-.05,5.57-.09,9.7.02,15.33.4,23.06.69,26.53,4.8,4.2,4.96,4.24,14.49.1,19.29-2.94,3.41-9.17,3.68-21.52,4.09Z"/></svg>