<svg width="1512" height="645" viewBox="0 0 1512 645" fill="none" xmlns="http://www.w3.org/2000/svg">
<rect width="1512" height="645" fill="url(#paint0_linear_22_956)" fill-opacity="0.53"/>
<path d="M221.78 173.498C183.282 174.62 144.817 175.775 106.319 176.897C106.253 180.428 105.561 186.632 101.536 192.539C93.7508 204.056 77.7512 208.016 66.733 204.122C51.2282 198.644 41.0347 175.973 50.2386 153.071H231.677L48.3252 551.216C94.0476 550.094 139.77 548.972 185.492 547.85C189.484 529.139 205.649 516.467 222.077 517.292C242.596 518.315 255.429 539.996 254.769 558.08C254.109 575.834 240.518 586.889 238.176 588.737C168.932 588.737 99.6887 588.737 30.4453 588.704C94.2126 450.302 158.013 311.9 221.78 173.498Z" fill="#F05529"/>
<path d="M538.472 153.137H574.759V588.737C544.509 588.407 514.258 588.11 484.007 587.78C472.494 573.623 472.263 555.242 481.467 544.913C490.374 534.914 504.592 536.333 505.681 536.465C518.184 537.917 529.004 547.487 532.897 560.918" fill="#F05529"/>
<path d="M733.106 588.737H710.014V153.137H812.279C814.588 170.462 808.32 187.424 795.784 196.367C778.597 208.643 751.645 204.452 735.778 183.794" fill="#F05529"/>
<path d="M575.167 152.947L574.38 153.191L709.67 588.777L710.458 588.532L575.167 152.947Z" fill="#F05529"/>
<path d="M363.664 562.073C344.96 550.721 340.671 504.026 340.209 498.713C339.187 486.437 340.044 477.56 333.513 470.564C324.012 460.4 307.122 462.941 303.361 463.535C291.353 465.35 282.941 471.719 278.487 475.778C290.165 526.4 309.794 565.307 333.414 582.962C339.78 587.252 346.279 590.387 352.646 592.268C355.714 592.994 358.815 593.357 361.949 593.357C384.744 593.357 405.659 574.283 422.054 542.504C413.378 549.566 382.039 573.26 363.631 562.106L363.664 562.073Z" fill="#F05529"/>
<path d="M360.3 174.719C379.005 186.071 383.293 232.766 383.755 238.079C384.778 250.355 383.92 259.232 390.452 266.228C399.952 276.392 416.843 273.851 420.603 273.257C432.578 271.442 441.023 265.106 445.477 261.014C433.535 209.237 413.247 169.769 388.901 152.741C383.755 149.441 378.51 146.9 373.363 145.184C369.636 144.128 365.842 143.534 362.015 143.534C339.286 143.534 318.371 162.542 302.009 194.189C310.817 187.028 341.991 163.532 360.333 174.686L360.3 174.719Z" fill="#F05529"/>
<path d="M456.99 368.429C456.99 438.521 443.365 501.188 422.055 542.471C422.681 541.976 423.176 541.547 423.539 541.25C444.487 499.802 457.815 437.729 457.815 368.429C457.815 329.324 453.559 292.529 446.104 260.42C445.873 260.618 445.675 260.816 445.411 261.047C452.767 292.991 456.957 329.555 456.957 368.429H456.99Z" fill="#F05529"/>
<path d="M388.901 152.774C392.563 155.117 396.225 157.856 399.788 160.991C388.176 149.21 375.409 142.676 362.016 142.676C365.743 143.072 369.537 143.897 373.397 145.184C378.741 146.702 383.92 149.243 388.934 152.741L388.901 152.774Z" fill="#F05529"/>
<path d="M266.974 368.429C266.974 298.238 280.631 235.505 301.975 194.222C301.348 194.717 300.854 195.146 300.491 195.443C279.51 236.891 266.149 299.03 266.149 368.429C266.149 407.501 270.405 444.296 277.827 476.372C278.058 476.174 278.256 475.976 278.52 475.745C271.164 443.834 266.974 407.27 266.974 368.429Z" fill="#F05529"/>
<path d="M278.521 475.745C278.29 475.976 278.059 476.174 277.828 476.372C287.989 520.196 304.186 555.209 323.715 575.339C326.915 578.144 330.148 580.685 333.414 582.896C309.794 565.241 290.166 526.367 278.488 475.712L278.521 475.745Z" fill="#F05529"/>
<path d="M361.982 143.534C365.842 143.534 369.602 144.128 373.33 145.184C369.503 143.897 365.677 143.039 361.949 142.676C338.56 142.676 317.117 162.542 300.458 195.443C300.854 195.113 301.349 194.717 301.942 194.222C318.305 162.575 339.22 143.567 361.949 143.567L361.982 143.534Z" fill="#F05529"/>
<path d="M445.444 261.047C445.675 260.816 445.906 260.618 446.137 260.42C435.877 216.266 419.548 181.055 399.788 161.024C396.225 157.889 392.563 155.15 388.901 152.807C413.214 169.835 433.535 209.303 445.477 261.08L445.444 261.047Z" fill="#F05529"/>
<path d="M842.397 153.235L841.572 153.241L844.84 588.796L845.665 588.79L842.397 153.235Z" fill="#F05529"/>
<path d="M845.267 517.226V588.704C861.333 588.935 965.544 588.803 1026.71 508.778C1104.23 407.303 1070.81 239.696 970.625 177.953C922.89 148.55 870.834 149.903 842.364 153.17C956.241 179.603 1029.61 274.511 1022.78 366.35C1016.38 452.711 941.43 504.158 930.279 511.583C930.543 484.82 908.177 463.865 883.864 465.977C860.145 468.056 841.705 491.42 845.234 517.259L845.267 517.226Z" fill="#F05529"/>
<path d="M1456.55 169.637C1444.74 155.645 1417.75 154.919 1368.73 153.632C1357.98 153.368 1347.26 153.335 1336.73 153.566V153.5C1328.65 153.533 1320.6 153.533 1312.52 153.533C1312.88 291.704 1313.21 429.842 1313.58 568.013C1308.03 558.707 1298.67 554.054 1291.94 556.133C1283.19 558.872 1276.43 573.821 1283.56 588.737H1336.34C1336.44 474.92 1336.54 361.07 1336.64 247.22C1345.64 247.583 1354.78 247.781 1363.95 247.781C1371.14 247.781 1378.37 247.682 1385.59 247.451C1389.75 247.319 1393.67 247.187 1397.43 247.055C1416.83 374.633 1426.63 438.422 1426.79 438.389C1426.96 438.389 1417.56 374.567 1398.52 246.989C1420.06 255.008 1443.52 249.53 1456.88 233.822C1473.6 214.187 1469.25 184.685 1456.55 169.637ZM1456.25 233.261C1446.49 244.613 1424.85 245.306 1385.56 246.626C1369.29 247.154 1352.9 247.088 1336.87 246.395L1337.13 154.391C1347.52 154.16 1358.11 154.193 1368.7 154.457C1417.49 155.744 1444.34 156.47 1455.92 170.165C1469.58 186.335 1469.74 217.586 1456.25 233.261Z" fill="#F05529"/>
<path d="M1478.52 588.044C1468.66 588.011 1458.79 588.011 1448.93 588.011C1441.61 538.511 1434.28 488.978 1426.96 439.478C1439.16 517.985 1447.54 569.729 1448.4 569.729C1448.7 569.696 1447.18 561.908 1451.73 557.354C1456.71 552.404 1467.47 552.8 1473.84 557.618C1481.59 563.459 1484.1 576.296 1478.52 588.044Z" fill="#F05529"/>
<path d="M1108.09 153.137C1108.48 298.337 1108.91 443.57 1109.31 588.77C1154.01 588.902 1198.68 589.001 1243.38 589.133C1262.11 575.042 1266.86 552.437 1257.2 537.587C1250.2 526.829 1233.15 516.467 1217.22 522.968C1204.09 528.347 1196.53 543.89 1201.58 559.532C1171 559.763 1140.42 560.027 1109.84 560.258C1109.9 468.32 1110 376.382 1110.07 284.444C1126.86 284.906 1143.68 285.401 1160.47 285.863C1161.73 289.493 1164.99 292.133 1168.85 292.628C1173.44 293.189 1177.13 290.483 1178.85 287.777C1181.42 283.751 1180.63 278.108 1176.67 274.148C1154.44 273.917 1132.2 273.686 1109.97 273.455C1109.64 239.432 1109.31 205.376 1108.98 171.353C1135.73 171.419 1162.52 171.518 1189.27 171.584C1191.29 181.583 1199.73 188.81 1209.2 189.437C1220.35 190.163 1227.31 181.319 1227.87 180.626C1233.64 173.036 1233.08 162.146 1226.25 153.434C1186.87 153.335 1147.48 153.203 1108.09 153.104V153.137Z" fill="#F05529"/>
<path d="M1447.02 574.448L1397.37 246.461L1398.13 246.329L1447.81 574.316L1447.02 574.448Z" fill="#F05529"/>
<defs>
<linearGradient id="paint0_linear_22_956" x1="756" y1="0" x2="756" y2="645" gradientUnits="userSpaceOnUse">
<stop stop-color="#F05529"/>
<stop offset="1" stop-color="#987F01" stop-opacity="0"/>
</linearGradient>
</defs>
</svg>
