<svg width="1468" height="462" viewBox="0 0 1468 462" fill="none" xmlns="http://www.w3.org/2000/svg">
<path d="M199.78 36.498C161.282 37.62 122.817 38.775 84.3195 39.897C84.2535 43.428 83.5607 49.632 79.5361 55.539C71.7508 67.056 55.7512 71.016 44.733 67.122C29.2282 61.644 19.0347 38.973 28.2386 16.071H209.677L26.3252 414.216C72.0476 413.094 117.77 411.972 163.492 410.85C167.484 392.139 183.649 379.467 200.077 380.292C220.596 381.315 233.429 402.996 232.769 421.08C232.109 438.834 218.518 449.889 216.176 451.737C146.932 451.737 77.6887 451.737 8.44531 451.704C72.2126 313.302 136.013 174.9 199.78 36.498Z" fill="#F05529"/>
<path d="M516.472 16.137H552.759V451.737C522.509 451.407 492.258 451.11 462.007 450.78C450.494 436.623 450.263 418.242 459.467 407.913C468.374 397.914 482.592 399.333 483.681 399.465C496.184 400.917 507.004 410.487 510.897 423.918" fill="#F05529"/>
<path d="M711.106 451.737H688.014V16.137H790.279C792.588 33.462 786.32 50.424 773.784 59.367C756.597 71.643 729.645 67.452 713.778 46.794" fill="#F05529"/>
<path d="M553.167 15.9466L552.38 16.1914L687.67 451.777L688.458 451.532L553.167 15.9466Z" fill="#F05529"/>
<path d="M341.664 425.073C322.96 413.721 318.671 367.026 318.209 361.713C317.187 349.437 318.044 340.56 311.513 333.564C302.012 323.4 285.122 325.941 281.361 326.535C269.353 328.35 260.941 334.719 256.487 338.778C268.165 389.4 287.794 428.307 311.414 445.962C317.78 450.252 324.279 453.387 330.646 455.268C333.714 455.994 336.815 456.357 339.949 456.357C362.744 456.357 383.659 437.283 400.054 405.504C391.378 412.566 360.039 436.26 341.631 425.106L341.664 425.073Z" fill="#F05529"/>
<path d="M338.3 37.7191C357.005 49.0711 361.293 95.7661 361.755 101.079C362.778 113.355 361.92 122.232 368.452 129.228C377.952 139.392 394.843 136.851 398.603 136.257C410.578 134.442 419.023 128.106 423.477 124.014C411.535 72.2371 391.247 32.7691 366.901 15.7411C361.755 12.4411 356.51 9.90006 351.363 8.18406C347.636 7.12806 343.842 6.53406 340.015 6.53406C317.286 6.53406 296.371 25.5421 280.009 57.1891C288.817 50.0281 319.991 26.5321 338.333 37.6861L338.3 37.7191Z" fill="#F05529"/>
<path d="M434.99 231.429C434.99 301.521 421.365 364.188 400.055 405.471C400.681 404.976 401.176 404.547 401.539 404.25C422.487 362.802 435.815 300.729 435.815 231.429C435.815 192.324 431.559 155.529 424.104 123.42C423.873 123.618 423.675 123.816 423.411 124.047C430.767 155.991 434.957 192.555 434.957 231.429H434.99Z" fill="#F05529"/>
<path d="M366.901 15.774C370.563 18.117 374.225 20.856 377.788 23.991C366.176 12.21 353.409 5.67603 340.016 5.67603C343.743 6.07203 347.537 6.89703 351.397 8.18403C356.741 9.70203 361.92 12.243 366.934 15.741L366.901 15.774Z" fill="#F05529"/>
<path d="M244.974 231.429C244.974 161.238 258.631 98.505 279.975 57.222C279.348 57.717 278.854 58.146 278.491 58.443C257.51 99.891 244.149 162.03 244.149 231.429C244.149 270.501 248.405 307.296 255.827 339.372C256.058 339.174 256.256 338.976 256.52 338.745C249.164 306.834 244.974 270.27 244.974 231.429Z" fill="#F05529"/>
<path d="M256.521 338.745C256.29 338.976 256.059 339.174 255.828 339.372C265.989 383.196 282.186 418.209 301.715 438.339C304.915 441.144 308.148 443.685 311.414 445.896C287.794 428.241 268.166 389.367 256.488 338.712L256.521 338.745Z" fill="#F05529"/>
<path d="M339.982 6.53403C343.842 6.53403 347.602 7.12803 351.33 8.18403C347.503 6.89703 343.677 6.03903 339.949 5.67603C316.56 5.67603 295.117 25.542 278.458 58.443C278.854 58.113 279.349 57.717 279.942 57.222C296.305 25.575 317.22 6.56703 339.949 6.56703L339.982 6.53403Z" fill="#F05529"/>
<path d="M423.444 124.047C423.675 123.816 423.906 123.618 424.137 123.42C413.877 79.266 397.548 44.055 377.788 24.024C374.225 20.889 370.563 18.15 366.901 15.807C391.214 32.835 411.535 72.303 423.477 124.08L423.444 124.047Z" fill="#F05529"/>
<path d="M820.397 16.2351L819.572 16.2413L822.84 451.796L823.665 451.79L820.397 16.2351Z" fill="#F05529"/>
<path d="M823.267 380.226V451.704C839.333 451.935 943.544 451.803 1004.71 371.778C1082.23 270.303 1048.81 102.696 948.625 40.953C900.89 11.55 848.834 12.903 820.364 16.17C934.241 42.603 1007.61 137.511 1000.78 229.35C994.38 315.711 919.43 367.158 908.279 374.583C908.543 347.82 886.177 326.865 861.864 328.977C838.145 331.056 819.705 354.42 823.234 380.259L823.267 380.226Z" fill="#F05529"/>
<path d="M1434.55 32.637C1422.74 18.645 1395.75 17.919 1346.73 16.632C1335.98 16.368 1325.26 16.335 1314.73 16.566V16.5C1306.65 16.533 1298.6 16.533 1290.52 16.533C1290.88 154.704 1291.21 292.842 1291.58 431.013C1286.03 421.707 1276.67 417.054 1269.94 419.133C1261.19 421.872 1254.43 436.821 1261.56 451.737H1314.34C1314.44 337.92 1314.54 224.07 1314.64 110.22C1323.64 110.583 1332.78 110.781 1341.95 110.781C1349.14 110.781 1356.37 110.682 1363.59 110.451C1367.75 110.319 1371.67 110.187 1375.43 110.055C1394.83 237.633 1404.63 301.422 1404.79 301.389C1404.96 301.389 1395.56 237.567 1376.52 109.989C1398.06 118.008 1421.52 112.53 1434.88 96.822C1451.6 77.187 1447.25 47.685 1434.55 32.637ZM1434.25 96.261C1424.49 107.613 1402.85 108.306 1363.56 109.626C1347.29 110.154 1330.9 110.088 1314.87 109.395L1315.13 17.391C1325.52 17.16 1336.11 17.193 1346.7 17.457C1395.49 18.744 1422.34 19.47 1433.92 33.165C1447.58 49.335 1447.74 80.586 1434.25 96.261Z" fill="#F05529"/>
<path d="M1456.52 451.044C1446.66 451.011 1436.79 451.011 1426.93 451.011C1419.61 401.511 1412.28 351.978 1404.96 302.478C1417.16 380.985 1425.54 432.729 1426.4 432.729C1426.7 432.696 1425.18 424.908 1429.73 420.354C1434.71 415.404 1445.47 415.8 1451.84 420.618C1459.59 426.459 1462.1 439.296 1456.52 451.044Z" fill="#F05529"/>
<path d="M1086.09 16.137C1086.48 161.337 1086.91 306.57 1087.31 451.77C1132.01 451.902 1176.68 452.001 1221.38 452.133C1240.11 438.042 1244.86 415.437 1235.2 400.587C1228.2 389.829 1211.15 379.467 1195.22 385.968C1182.09 391.347 1174.53 406.89 1179.58 422.532C1149 422.763 1118.42 423.027 1087.84 423.258C1087.9 331.32 1088 239.382 1088.07 147.444C1104.86 147.906 1121.68 148.401 1138.47 148.863C1139.73 152.493 1142.99 155.133 1146.85 155.628C1151.44 156.189 1155.13 153.483 1156.85 150.777C1159.42 146.751 1158.63 141.108 1154.67 137.148C1132.44 136.917 1110.2 136.686 1087.97 136.455C1087.64 102.432 1087.31 68.376 1086.98 34.353C1113.73 34.419 1140.52 34.518 1167.27 34.584C1169.29 44.583 1177.73 51.81 1187.2 52.437C1198.35 53.163 1205.31 44.319 1205.87 43.626C1211.64 36.036 1211.08 25.146 1204.25 16.434C1164.87 16.335 1125.48 16.203 1086.09 16.104V16.137Z" fill="#F05529"/>
<path d="M1425.02 437.448L1375.37 109.461L1376.13 109.329L1425.81 437.316L1425.02 437.448Z" fill="#F05529"/>
</svg>
